<?xml version="1.0" encoding="UTF-8"?>
<svg width="22.406mm" height="25.871mm" version="1.1" viewBox="0 0 22.406 25.871" xmlns="http://www.w3.org/2000/svg" xmlns:cc="http://creativecommons.org/ns#" xmlns:dc="http://purl.org/dc/elements/1.1/" xmlns:rdf="http://www.w3.org/1999/02/22-rdf-syntax-ns#" xmlns:xlink="http://www.w3.org/1999/xlink">
 <defs>
  <linearGradient id="linearGradient953" x1="108.96" x2="124.28" y1="217.17" y2="235.51" gradientTransform="matrix(1.5285 0 0 1.2715 -47.209 -63.861)" gradientUnits="userSpaceOnUse">
   <stop style="stop-color:#fff" offset="0"/>
   <stop style="stop-color:#fff;stop-opacity:0" offset="1"/>
  </linearGradient>
 </defs>
 <metadata>
  <rdf:RDF>
   <cc:Work rdf:about="">
    <dc:format>image/svg+xml</dc:format>
    <dc:type rdf:resource="http://purl.org/dc/dcmitype/StillImage"/>
    <dc:title/>
   </cc:Work>
  </rdf:RDF>
 </metadata>
 <g transform="translate(-201.78 -212.01)">
  <path transform="matrix(.26458 0 0 .26458 47.135 213.08)" d="m241.41 15.91-62.85 36.285 174.19 100.57 62.85-36.285z" style="fill:#a8cbfe;paint-order:markers fill stroke;stroke-linecap:round;stroke-width:1.0016"/>
  <path d="m126.48 86.665 1.7682-12.137-5.1737 0.89503z" style="fill:#fff"/>
  <text transform="skewX(-8.155)" x="138.1264" y="115.32669" style="fill:#000000;font-family:'Gill Sans MT';font-size:10.583px;font-variant-caps:normal;font-variant-east-asian:normal;font-variant-ligatures:normal;font-variant-numeric:normal;font-weight:bold;letter-spacing:0px;line-height:1.25;stroke-width:.26458;word-spacing:0px" xml:space="preserve"><tspan x="138.1264" y="115.32669" style="font-family:'Gill Sans MT';font-size:10.583px;font-variant-caps:normal;font-variant-east-asian:normal;font-variant-ligatures:normal;font-variant-numeric:normal;font-weight:bold;stroke-width:.26458">tran</tspan></text>
  <text transform="skewX(-8.155)" x="158.75569" y="117.64808" style="fill:#2ec27e;font-family:'Gill Sans MT';font-size:10.583px;font-variant-caps:normal;font-variant-east-asian:normal;font-variant-ligatures:normal;font-variant-numeric:normal;font-weight:bold;letter-spacing:0px;line-height:1.25;stroke-width:.26458;word-spacing:0px" xml:space="preserve"><tspan x="158.75569" y="117.64808" style="fill:#2ec27e;font-family:'Gill Sans MT';font-size:10.583px;font-variant-caps:normal;font-variant-east-asian:normal;font-variant-ligatures:normal;font-variant-numeric:normal;font-weight:bold;stroke-width:.26458">Send</tspan></text>
  <path d="m168 107.6s-2.0471 0.1842-2.564 0.7849c-0.89553 1.0408-1.6186 1.7144-2.6908 1.4626-6.3677-1.4952-3.5257-4.7507-8.5526-5.6355 6.1263-0.85959 5.5059 0.53548 8.3132 2.7775 1.6943 0.45199 2.5119-0.63484 3.3324-0.5971 1.2782 0.0588 1.2061 1.2434 2.1618 1.2076z" style="fill:#2ec27e"/>
  <path d="m161.36 108.46c-1.8461 1.4526-4.237 2.3363-6.5367 3.2807 2.7759-0.43376 6.0871-0.88463 8.7074-1.85" style="fill:#2ec27e"/>
  <text transform="skewX(-8.155)" x="141.3923" y="138.11723" style="fill:#000000;font-family:'Gill Sans MT';font-size:10.583px;font-variant-caps:normal;font-variant-east-asian:normal;font-variant-ligatures:normal;font-variant-numeric:normal;font-weight:bold;letter-spacing:0px;line-height:1.25;stroke-width:.26458;word-spacing:0px" xml:space="preserve"><tspan x="141.3923" y="138.11723" style="font-family:'Gill Sans MT';font-size:10.583px;font-variant-caps:normal;font-variant-east-asian:normal;font-variant-ligatures:normal;font-variant-numeric:normal;font-weight:bold;stroke-width:.26458">tran</tspan></text>
  <path d="m166.43 131.05s-2.0471 0.1842-2.564 0.7849c-0.89553 1.0408-1.6186 1.7144-2.6908 1.4626-6.3677-1.4952-3.5257-4.7507-8.5526-5.6355 6.1263-0.85959 5.5059 0.53548 8.3132 2.7775 1.6943 0.45199 2.5119-0.63484 3.3324-0.5971 1.2782 0.0588 1.2061 1.2434 2.1618 1.2076z" style="fill:#2ec27e"/>
  <g transform="skewX(-8.155)" style="fill:#2ec27e;font-variant-caps:normal;font-variant-east-asian:normal;font-variant-ligatures:normal;font-variant-numeric:normal" aria-label="Send">
   <path d="m175.38 132.6c-2.0812 2.1065-10.924 0.89391-11.002 2.4479 0 0.1378 0.0689 0.26871 0.2067 0.39274 0.13781 0.12402 0.4737 0.28422 1.0077 0.48059s0.96118 0.37895 1.2816 0.54776 0.596 0.40653 0.82682 0.71314c0.23427 0.30661 0.3514 0.69418 0.3514 1.1627 0 0.66835-0.25494 1.2006-0.76481 1.5968-0.50643 0.39619-1.1748 0.59428-2.005 0.59428-0.89572 0-1.7639-0.23254-2.6045-0.69763v-1.5555c0.48231 0.32384 0.9095 0.55983 1.2816 0.70797 0.37207 0.14813 0.76653 0.2222 1.1834 0.2222 0.70624 0 1.0594-0.22221 1.0594-0.66662 0-0.15159-0.0706-0.29456-0.21187-0.42891-0.14125-0.13436-0.48231-0.298-1.0232-0.49093-0.53743-0.19292-0.96462-0.37206-1.2816-0.53743-0.31351-0.16537-0.58567-0.40136-0.81649-0.70797-0.22737-0.30661-0.34106-0.69934-0.34106-1.1782 0-0.62012 0.24977-1.1197 0.7493-1.4986 0.49954-0.3824 1.1679-0.5736 2.005-0.5736 4.3398 0.22058 6.7548 0.22711 10.098-0.53068z" style="fill:#2ec27e;font-variant-caps:normal;font-variant-east-asian:normal;font-variant-ligatures:normal;font-variant-numeric:normal;stroke-width:.26458"/>
   <path d="m173.8 138.92v0.96635q-0.8785 0.64079-2.1756 0.64079-1.2867 0-2.0567-0.6873-0.76997-0.69246-0.76997-1.8293 0-1.1162 0.72347-1.8345 0.72346-0.7183 1.8448-0.7183 1.1265 0 1.8448 0.75965 0.72347 0.75447 0.67696 2.0257h-3.5036q0.0465 0.66145 0.47025 1.018 0.42375 0.35656 1.1369 0.35656 0.86299 0 1.8087-0.69763zm-3.3848-1.4831h2.1187q-0.12402-1.0645-1.0594-1.0645-0.94568 0-1.0594 1.0645z" style="fill:#2ec27e;font-variant-caps:normal;font-variant-east-asian:normal;font-variant-ligatures:normal;font-variant-numeric:normal;stroke-width:.26458"/>
   <path d="m176.43 135.56v0.69763q0.67696-0.79582 1.5865-0.79582 0.75964 0 1.2661 0.48576 0.5116 0.48576 0.5116 1.3901v3.1006h-1.5348v-2.9714q0-0.97668-0.75964-0.97668-0.5426 0-1.0697 0.80615v3.1419h-1.5348v-4.8782z" style="fill:#2ec27e;font-variant-caps:normal;font-variant-east-asian:normal;font-variant-ligatures:normal;font-variant-numeric:normal;stroke-width:.26458"/>
   <path d="m185.98 133.22v7.2192h-1.5348v-0.39274q-0.58911 0.48576-1.3539 0.48576-0.97668 0-1.633-0.72347-0.65112-0.72347-0.65112-1.8138 0-1.1162 0.66146-1.8242 0.66662-0.70797 1.7053-0.70797 0.64596 0 1.2712 0.31006v-2.5528zm-1.5348 5.8859v-2.3306q-0.41858-0.28422-0.85783-0.28422-0.57877 0-0.90433 0.40308-0.32039 0.40307-0.32039 1.1317 0 0.67179 0.32039 1.08 0.32039 0.40308 0.85266 0.40308 0.47025 0 0.9095-0.40308z" style="fill:#2ec27e;font-variant-caps:normal;font-variant-east-asian:normal;font-variant-ligatures:normal;font-variant-numeric:normal;stroke-width:.26458"/>
   <path d="m176.94 160.22-0.0592 1.1628c-0.58567 0.42719-1.3109 0.64079-2.1756 0.64079-0.85783 0-1.5434-0.2291-2.0567-0.6873-0.51331-0.46164-0.76997-1.0714-0.76997-1.8293 0-0.74414 0.24116-1.3556 0.72347-1.8345s1.0972-0.7183 1.8448-0.7183c0.75103 0 1.366 0.25322 1.8448 0.75965 0.48231 0.50298 0.70797 1.1782 0.67696 2.0257h-3.5036c0.031 0.44097 0.18775 0.78031 0.47025 1.018s0.61464 0.25832 1.0901 0.25832c0.57532 0 1.2842-0.33077 1.9147-0.79586zm-3.444-1.2866h2.1187c-0.0827-0.70969-0.4358-1.0645-1.0594-1.0645-0.63045 0-0.98358 0.35485-1.0594 1.0645z" style="fill:#2ec27e;font-variant-caps:normal;font-variant-east-asian:normal;font-variant-ligatures:normal;font-variant-numeric:normal;stroke-width:.26458"/>
   <path d="m179.51 157.05v0.69763q0.67696-0.79582 1.5865-0.79582 0.75964 0 1.2661 0.48576 0.5116 0.48576 0.5116 1.3901v3.1006h-1.5348v-2.9714q0-0.97668-0.75964-0.97668-0.5426 0-1.0697 0.80615v3.1419h-1.5348v-4.8782z" style="fill:#2ec27e;font-variant-caps:normal;font-variant-east-asian:normal;font-variant-ligatures:normal;font-variant-numeric:normal;stroke-width:.26458"/>
   <path d="m189.06 154.71v7.2192h-1.5348v-0.39274q-0.58911 0.48576-1.3539 0.48576-0.97668 0-1.633-0.72347-0.65112-0.72347-0.65112-1.8138 0-1.1162 0.66146-1.8242 0.66662-0.70797 1.7053-0.70797 0.64596 0 1.2712 0.31006v-2.5528zm-1.5348 5.8859v-2.3306q-0.41858-0.28422-0.85783-0.28422-0.57877 0-0.90433 0.40308-0.32039 0.40307-0.32039 1.1317 0 0.67179 0.32039 1.08 0.32039 0.40308 0.85266 0.40308 0.47025 0 0.9095-0.40308z" style="fill:#2ec27e;font-variant-caps:normal;font-variant-east-asian:normal;font-variant-ligatures:normal;font-variant-numeric:normal;stroke-width:.26458"/>
  </g>
  <path d="m159.79 131.91c-1.8461 1.4526-3.7122 2.4444-6.8609 3.2807 2.7759-0.43376 6.4112-0.88463 9.0315-1.85" style="fill:#2ec27e"/>
  <text transform="skewX(-8.155)" x="144.47142" y="159.60437" style="fill:#000000;font-family:'Gill Sans MT';font-size:10.583px;font-variant-caps:normal;font-variant-east-asian:normal;font-variant-ligatures:normal;font-variant-numeric:normal;font-weight:bold;letter-spacing:0px;line-height:1.25;stroke-width:.26458;word-spacing:0px" xml:space="preserve"><tspan x="144.47142" y="159.60437" style="font-family:'Gill Sans MT';font-size:10.583px;font-variant-caps:normal;font-variant-east-asian:normal;font-variant-ligatures:normal;font-variant-numeric:normal;font-weight:bold;stroke-width:.26458">tran</tspan></text>
  <g transform="matrix(1 0 -.1433 1 0 -16.503)" style="fill:#2ec27e;font-variant-caps:normal;font-variant-east-asian:normal;font-variant-ligatures:normal;font-variant-numeric:normal" aria-label="S">
   <path transform="matrix(.26458 0 .037915 .26458 2.365 16.503)" d="m207.49 685.12v48.893l42.342 24.445 42.34-24.445v-48.893l-42.34 24.447z" style="fill:#26a269;paint-order:markers fill stroke"/>
   <path d="m93.516 191.31-10.276 6.4678 12.129 6.4678 10.276-6.4683zm12.129 6.4673 1.8538 12.936 5.9e-4 5.2e-4 -1.8538-12.936z" style="fill:#33d17a;paint-order:markers fill stroke"/>
  </g>
  <path d="m60.836 183.92c-0.93184 0.14157-2.0658 0.40014-3.4852 0.79934 5.5375 0.2187 4.1444 3.5953 8.7758 5.072-1.8162 1.6778-3.8729 3.0117-7.1094 4.3586 4.693-1.8921 10.142-1.6131 13.209-6.0944 0.54846-0.84494 3.096-1.426 3.096-1.426-1.1977 0.20841-1.3096-1.2962-2.9298-1.152-1.04 0.0927-1.8839 1.6009-4.0953 1.3209-3.1843-1.9051-3.4229-3.4921-7.4608-2.8784z" style="fill:#fff"/>
  <text x="79.057907" y="191.37932" style="fill:#000000;font-family:'Brush Script MT';font-size:8.9836px;font-variant-caps:normal;font-variant-east-asian:normal;font-variant-ligatures:normal;font-variant-numeric:normal;letter-spacing:0px;line-height:1.25;stroke-width:.22459;word-spacing:0px" xml:space="preserve"><tspan x="79.057907" y="191.37932" style="font-family:'Malgun Gothic';font-size:8.9836px;font-variant-caps:normal;font-variant-east-asian:normal;font-variant-ligatures:normal;font-variant-numeric:normal;font-weight:bold;stroke-width:.22459">transend</tspan></text>
  <g transform="matrix(1 0 -.1433 1 0 21.778)" style="fill:#2ec27e;font-variant-caps:normal;font-variant-east-asian:normal;font-variant-ligatures:normal;font-variant-numeric:normal" aria-label="S">
   <path transform="matrix(.26458 0 .037915 .26458 2.365 16.503)" d="m207.49 685.12v48.893l42.342 24.445 42.34-24.445v-48.893l-42.34 24.447z" style="fill:#26a269;paint-order:markers fill stroke"/>
   <path d="m93.516 191.31-10.276 6.4678 12.129 6.4678 10.276-6.4683zm12.129 6.4673 1.8538 12.936 5.9e-4 5.2e-4 -1.8538-12.936z" style="fill:#33d17a;paint-order:markers fill stroke"/>
  </g>
  <path d="m60.836 222.2c-0.93184 0.14157-2.0658 0.40014-3.4852 0.79934 5.5375 0.2187 4.1444 3.5953 8.7758 5.072-1.8162 1.6778-3.8729 3.0117-7.1094 4.3586 4.693-1.8921 10.142-1.6131 13.209-6.0944 0.54846-0.84494 3.096-1.426 3.096-1.426-1.1977 0.20841-1.3096-1.2962-2.9298-1.152-1.04 0.0927-1.8839 1.6009-4.0953 1.3209-3.1843-1.9051-3.4229-3.4921-7.4608-2.8784z" style="fill:#fff"/>
  <text x="46.950699" y="248.55122" style="fill:#000000;font-family:'Brush Script MT';font-size:8.9836px;font-variant-caps:normal;font-variant-east-asian:normal;font-variant-ligatures:normal;font-variant-numeric:normal;letter-spacing:0px;line-height:1.25;stroke-width:.22459;word-spacing:0px" xml:space="preserve"><tspan x="46.950699" y="248.55122" style="font-family:'Malgun Gothic';font-size:8.9836px;font-variant-caps:normal;font-variant-east-asian:normal;font-variant-ligatures:normal;font-variant-numeric:normal;font-weight:bold;stroke-width:.22459">transend</tspan></text>
  <g transform="matrix(1 0 -.1433 1 146.88 20.701)" style="fill:#2ec27e;font-variant-caps:normal;font-variant-east-asian:normal;font-variant-ligatures:normal;font-variant-numeric:normal" aria-label="S">
   <path transform="matrix(.26458 0 .037915 .26458 2.365 16.503)" d="m207.49 685.12v48.893l42.342 24.445 42.34-24.445v-48.893l-42.34 24.447z" style="fill:#26a269;paint-order:markers fill stroke"/>
   <path d="m93.516 191.31-10.276 6.4678 12.129 6.4678 10.276-6.4683zm12.129 6.4673 1.8538 12.936 5.9e-4 5.2e-4 -1.8538-12.936z" style="fill:#33d17a;paint-order:markers fill stroke"/>
  </g>
  <path d="m109.97 220.42-0.9388 5.258-7.4358 1.1546" style="fill:none;stroke-width:1.165;stroke:#81b4fe"/>
  <path d="m120.01 226.19-0.9388 5.258-7.4358 1.1546" style="fill:none;stroke-width:1.165;stroke:#81b4fe"/>
  <path d="m129.01 231.17-0.9388 5.258-7.4358 1.1546" style="fill:none;stroke-width:1.165;stroke:#81b4fe"/>
  <path d="m139.05 237.45-0.9388 5.258-7.4358 1.1546" style="fill:none;stroke-width:1.165;stroke:#81b4fe"/>
  <path d="m148.57 242.95-0.9388 5.258-7.4358 1.1546" style="fill:none;stroke-width:1.165;stroke:#81b4fe"/>
  <path d="m140.01 202.08-54.721 27.091 19.619 30.977 62.462-42.302z" style="fill:url(#linearGradient953)"/>
 </g>
</svg>
